<?xml version="1.0" standalone="no"?>
<!DOCTYPE svg PUBLIC "-//W3C//DTD SVG 20010904//EN"
 "http://www.w3.org/TR/2001/REC-SVG-20010904/DTD/svg10.dtd">
<svg version="1.0" xmlns="http://www.w3.org/2000/svg"
 width="500.000000pt" height="500.000000pt" viewBox="0 0 500.000000 500.000000"
 preserveAspectRatio="xMidYMid meet">
<metadata>
Created by potrace 1.14, written by Peter Selinger 2001-2017
</metadata>
<g transform="translate(0.000000,500.000000) scale(0.100000,-0.100000)"
fill="#000000" stroke="none">
<path d="M1455 4585 c-92 -20 -152 -52 -215 -114 -89 -86 -144 -199 -175 -356
-13 -67 -14 -406 -2 -477 3 -16 8 -47 12 -70 13 -76 16 -92 26 -138 6 -25 13
-56 15 -69 3 -13 6 -28 7 -33 1 -6 -41 -25 -93 -43 -365 -123 -612 -281 -740
-472 -67 -100 -85 -157 -85 -273 0 -111 17 -168 76 -262 120 -187 378 -355
727 -474 67 -23 125 -44 128 -46 3 -3 -4 -41 -15 -84 -30 -121 -56 -270 -68
-394 -52 -552 146 -886 519 -875 134 4 249 38 405 121 135 71 314 204 457 339
33 30 63 54 67 53 4 -2 34 -28 66 -59 183 -175 405 -325 588 -397 409 -161
704 7 778 443 19 110 15 357 -8 500 -16 99 -53 276 -71 337 -4 14 9 21 68 39
358 108 668 299 792 490 62 94 86 179 82 284 -4 109 -27 174 -95 272 -128 182
-391 347 -731 458 -47 16 -88 31 -92 35 -5 3 -2 30 6 60 14 54 38 181 52 270
3 25 7 119 9 210 4 220 -16 332 -81 468 -140 289 -447 352 -814 167 -135 -68
-312 -193 -439 -310 -29 -27 -67 -62 -84 -78 -34 -31 -30 -33 -112 45 -27 26
-89 79 -138 117 -313 252 -602 362 -822 316z m240 -210 c126 -37 276 -120 431
-241 85 -66 224 -192 224 -203 0 -3 -19 -26 -41 -51 -65 -71 -91 -102 -134
-155 -21 -28 -42 -52 -45 -55 -4 -3 -38 -48 -77 -100 -44 -60 -78 -96 -89 -96
-98 -2 -474 -63 -616 -99 -30 -8 -29 -11 -53 110 -35 168 -44 260 -41 425 5
228 35 331 123 417 73 70 183 87 318 48z m1863 -4 c121 -62 183 -223 184 -471
0 -153 -9 -237 -43 -406 -12 -56 -24 -106 -28 -112 -5 -8 -22 -7 -61 3 -30 7
-68 16 -85 19 -16 3 -41 7 -55 10 -103 20 -253 42 -356 52 -38 4 -76 8 -84 10
-8 1 -18 3 -22 3 -4 1 -29 31 -55 69 -39 55 -232 294 -252 312 -3 3 -19 20
-35 38 l-29 32 59 56 c230 217 496 378 674 407 52 8 151 -3 188 -22z m-1007
-644 c88 -101 179 -215 179 -223 0 -9 -458 -9 -463 -1 -5 10 217 277 231 277
4 0 27 -24 53 -53z m314 -439 c27 -2 40 -18 123 -143 112 -169 216 -347 302
-515 l63 -126 -66 -131 c-98 -194 -310 -552 -338 -569 -39 -23 -870 -23 -908
1 -9 5 -145 216 -182 282 -77 137 -124 223 -169 312 l-51 102 81 157 c121 231
347 600 382 623 6 4 44 7 86 8 42 1 78 4 80 6 4 3 542 -3 597 -7z m-1058 -74
c-12 -19 -34 -54 -49 -77 -33 -52 -167 -285 -201 -350 l-25 -48 -50 128 c-53
136 -102 279 -102 300 0 7 6 13 13 14 6 0 19 2 27 4 67 14 243 47 275 52 22 3
58 8 80 12 22 4 43 6 47 4 4 -2 -3 -19 -15 -39z m1443 32 c25 -3 56 -8 70 -11
14 -3 41 -8 60 -11 55 -8 111 -19 187 -37 l53 -12 -49 -140 c-62 -177 -104
-285 -112 -285 -4 0 -24 33 -44 73 -45 84 -185 323 -227 384 -15 23 -28 44
-28 46 0 4 17 3 90 -7z m-2021 -271 c50 -145 108 -292 159 -406 l29 -65 -29
-65 c-35 -76 -148 -363 -172 -435 l-17 -52 -117 40 c-318 107 -578 280 -652
433 -35 72 -34 161 2 235 61 125 237 260 473 362 85 37 257 98 268 95 4 -1 30
-65 56 -142z m2697 111 c331 -113 564 -268 642 -426 36 -74 37 -163 2 -235
-81 -168 -358 -343 -722 -455 l-57 -18 -22 67 c-28 86 -101 272 -151 388 l-41
92 56 128 c61 143 151 381 169 449 7 24 15 44 18 44 3 0 51 -15 106 -34z
m-2326 -946 c35 -63 87 -155 116 -203 30 -49 54 -92 54 -98 0 -5 -10 -7 -22
-4 -13 2 -61 11 -108 19 -47 9 -96 18 -110 20 -14 3 -49 11 -77 17 -29 6 -53
12 -53 13 0 18 130 359 135 354 2 -2 31 -55 65 -118z m1960 -132 l39 -107 -67
-14 c-75 -17 -111 -24 -162 -31 -19 -3 -45 -8 -56 -10 -12 -2 -38 -7 -59 -10
l-37 -6 25 42 c115 200 177 310 177 313 0 2 10 20 22 41 l21 36 30 -73 c16
-41 46 -122 67 -181z m-1949 -353 c75 -14 163 -27 195 -31 103 -10 117 -13
124 -21 4 -4 38 -51 75 -103 38 -52 86 -117 109 -145 69 -86 179 -216 208
-247 15 -17 28 -33 28 -37 0 -10 -143 -139 -229 -205 -217 -168 -409 -257
-557 -259 -208 -2 -312 165 -312 503 0 165 18 300 64 500 25 109 15 99 92 83
37 -8 128 -25 203 -38z m2073 -63 c84 -352 82 -673 -4 -842 -29 -57 -93 -116
-146 -134 -117 -40 -300 7 -494 128 -78 48 -210 146 -265 197 -22 20 -62 57
-90 83 l-49 45 30 33 c17 18 43 47 58 63 49 53 210 257 275 348 35 48 67 90
72 92 4 3 27 8 51 11 24 3 58 7 75 9 18 3 57 8 85 11 29 4 123 21 208 38 85
18 158 30 162 29 3 -2 18 -51 32 -111z m-912 -42 c-56 -75 -187 -234 -231
-282 l-47 -51 -70 79 c-68 77 -155 184 -207 254 l-26 35 304 0 304 0 -27 -35z"/>
<path d="M2385 2986 c-174 -42 -323 -189 -370 -365 -34 -129 0 -301 81 -411
148 -202 405 -264 634 -153 119 58 232 209 260 348 24 116 -11 294 -74 373
-80 101 -163 163 -261 197 -62 21 -203 27 -270 11z"/>
</g>
</svg>
